<svg width="55" height="56" viewBox="0 0 55 56" fill="none" xmlns="http://www.w3.org/2000/svg">
<path d="M54.5931 17.3507C52.1293 11.3596 47.6644 6.40809 41.9592 3.33988C36.2539 0.271662 29.6613 -0.723412 23.3046 0.524199C16.948 1.77181 11.2205 5.18492 7.09825 10.182C2.97595 15.179 0.713842 21.4508 0.697356 27.9287C0.68087 34.4067 2.91103 40.6899 7.00784 45.7079C11.1046 50.7258 16.8146 54.168 23.1649 55.448C29.5151 56.7279 36.1127 55.7664 41.8335 52.7273C47.5543 49.6882 52.0443 44.7595 54.5385 38.7809L28.6973 28L54.5931 17.3507Z" fill="url(#paint0_linear_46_478)"/>
<defs>
<linearGradient id="paint0_linear_46_478" x1="28.6973" y1="0" x2="28.6973" y2="56" gradientUnits="userSpaceOnUse">
<stop stop-color="#399C23"/>
<stop offset="1" stop-color="#12087E"/>
</linearGradient>
</defs>
</svg>
