<svg width="57" height="55" viewBox="0 0 57 55" fill="none" xmlns="http://www.w3.org/2000/svg">
<path d="M40.1139 53.73C45.9678 50.9561 50.6789 46.2382 53.4443 40.3802C56.2097 34.5222 56.8584 27.8865 55.2798 21.6038C53.7012 15.3212 49.9931 9.78022 44.7871 5.92509C39.5812 2.06997 33.1996 0.139203 26.7297 0.461768C20.2597 0.784333 14.1018 3.34027 9.30515 7.69409C4.50848 12.0479 1.36982 17.9302 0.423967 24.3387C-0.521883 30.7473 0.783597 37.2855 4.11797 42.8394C7.45234 48.3933 12.6093 52.6192 18.7102 54.7971L28.1239 28.427L40.1139 53.73Z" fill="url(#paint0_linear_46_488)"/>
<defs>
<linearGradient id="paint0_linear_46_488" x1="26.6585" y1="0.465407" x2="29.5893" y2="56.3887" gradientUnits="userSpaceOnUse">
<stop stop-color="#399C23"/>
<stop offset="1" stop-color="#12087E"/>
</linearGradient>
</defs>
</svg>
