<svg width="56" height="57" viewBox="0 0 56 57" fill="none" xmlns="http://www.w3.org/2000/svg">
<path d="M0.311179 36.4944C2.17762 42.6977 6.1372 48.0619 11.5153 51.673C16.8933 55.2841 23.3571 56.9187 29.8053 56.2983C36.2535 55.678 42.2871 52.841 46.878 48.2707C51.469 43.7005 54.3332 37.6798 54.9827 31.2345C55.6322 24.7892 54.0268 18.3181 50.4401 12.9237C46.8533 7.52938 41.5071 3.54559 35.3123 1.65114C29.1176 -0.243316 22.4576 0.0687855 16.4672 2.53426C10.4767 4.99973 5.52649 9.46603 2.4599 15.1722L27.1238 28.427L0.311179 36.4944Z" fill="url(#paint0_linear_46_499)"/>
<defs>
<linearGradient id="paint0_linear_46_499" x1="9.46658" y1="6.69635" x2="44.781" y2="50.1577" gradientUnits="userSpaceOnUse">
<stop stop-color="#399C23"/>
<stop offset="1" stop-color="#12087E"/>
</linearGradient>
</defs>
</svg>
