<svg width="83" height="84" viewBox="0 0 83 84" fill="none" xmlns="http://www.w3.org/2000/svg">
<path d="M60.5918 39.1367L31.373 21.373C28.7168 20.0449 25.5625 21.8711 25.5625 24.8594V59.3906C25.5625 62.5449 28.7168 64.3711 31.373 62.877L60.5918 46.1094C63.4141 44.6152 63.4141 40.7969 60.5918 39.1367ZM82.6719 42.125C82.6719 19.3809 64.2441 0.953125 41.5 0.953125C18.7559 0.953125 0.328125 19.3809 0.328125 42.125C0.328125 64.8691 18.7559 83.2969 41.5 83.2969C64.2441 83.2969 82.6719 64.8691 82.6719 42.125ZM8.29688 42.125C8.29688 23.8633 23.0723 8.92188 41.5 8.92188C59.7617 8.92188 74.7031 23.8633 74.7031 42.125C74.7031 60.5527 59.7617 75.3281 41.5 75.3281C23.0723 75.3281 8.29688 60.5527 8.29688 42.125Z" fill="white"/>
</svg>
