<svg width="37" height="36" viewBox="0 0 37 36" fill="none" xmlns="http://www.w3.org/2000/svg">
<path fill-rule="evenodd" clip-rule="evenodd" d="M16.4756 36C16.4446 27.4501 9.51694 20.5287 0.975586 20.5287C9.53599 20.5287 16.4756 13.5762 16.4756 5C16.5064 13.5499 23.4342 20.4713 31.9756 20.4713C23.415 20.4713 16.4756 27.4238 16.4756 36Z" fill="url(#paint0_linear_46_507)"/>
<path fill-rule="evenodd" clip-rule="evenodd" d="M29.4756 15C29.4606 10.863 26.1085 7.5139 21.9756 7.5139C26.1177 7.5139 29.4756 4.14977 29.4756 0C29.4905 4.13704 32.8427 7.4861 36.9756 7.4861C32.8334 7.4861 29.4756 10.8502 29.4756 15Z" fill="url(#paint1_linear_46_507)"/>
<defs>
<linearGradient id="paint0_linear_46_507" x1="0.975586" y1="20.5" x2="31.9756" y2="20.5" gradientUnits="userSpaceOnUse">
<stop stop-color="#399C23"/>
<stop offset="1" stop-color="#200EE4"/>
</linearGradient>
<linearGradient id="paint1_linear_46_507" x1="21.9756" y1="7.5" x2="36.9756" y2="7.5" gradientUnits="userSpaceOnUse">
<stop stop-color="#399C23"/>
<stop offset="1" stop-color="#200EE4"/>
</linearGradient>
</defs>
</svg>
