<svg width="20" height="20" viewBox="0 0 20 20" fill="none" xmlns="http://www.w3.org/2000/svg">
<path d="M19.6875 10.1748C19.6875 15.5264 15.3125 19.8623 10 19.8623C4.64844 19.8623 0.3125 15.5264 0.3125 10.1748C0.3125 4.8623 4.64844 0.487305 10 0.487305C15.3125 0.487305 19.6875 4.8623 19.6875 10.1748ZM8.86719 15.3311L16.0547 8.14355C16.2891 7.90918 16.2891 7.47949 16.0547 7.24512L15.1562 6.38574C14.9219 6.1123 14.5312 6.1123 14.2969 6.38574L8.4375 12.2451L5.66406 9.51074C5.42969 9.2373 5.03906 9.2373 4.80469 9.51074L3.90625 10.3701C3.67188 10.6045 3.67188 11.0342 3.90625 11.2686L7.96875 15.3311C8.20312 15.5654 8.63281 15.5654 8.86719 15.3311Z" fill="url(#paint0_linear_197_139)"/>
<defs>
<linearGradient id="paint0_linear_197_139" x1="10" y1="-1.3252" x2="10" y2="19.0417" gradientUnits="userSpaceOnUse">
<stop stop-color="#399C23"/>
<stop offset="1" stop-color="#200EE4"/>
</linearGradient>
</defs>
</svg>
